<svg
  width={30}
  height={30}
  viewBox="0 0 30 30"
  fill="none"
  xmlns="http://www.w3.org/2000/svg"
>
  <g clipPath="url(#clip0_376_3648)">
    <path
      fillRule="evenodd"
      clipRule="evenodd"
      d="M7.5 0C11.6421 0 15 3.35786 15 7.5V0H22.5C26.6421 0 30 3.35786 30 7.5C30 11.6421 26.6421 15 22.5 15C26.6421 15 30 18.3579 30 22.5C30 24.5567 29.1721 26.4201 27.8314 27.7751L27.8033 27.8033L27.7784 27.8281C26.4232 29.1707 24.5585 30 22.5 30C20.4556 30 18.6022 29.182 17.2493 27.8554C17.2317 27.8381 17.2141 27.8207 17.1967 27.8033C17.1803 27.7869 17.1639 27.7704 17.1476 27.7538C15.8193 26.4007 15 24.546 15 22.5C15 26.6421 11.6421 30 7.5 30C3.35786 30 0 26.6421 0 22.5V15H7.5C3.35786 15 0 11.6421 0 7.5C0 3.35786 3.35786 0 7.5 0ZM13.5 7.5C13.5 10.8137 10.8137 13.5 7.5 13.5V1.5C10.8137 1.5 13.5 4.18629 13.5 7.5ZM28.5 22.5C28.5 19.1863 25.8137 16.5 22.5 16.5C19.1863 16.5 16.5 19.1863 16.5 22.5H28.5ZM1.5 16.5V22.5C1.5 25.8137 4.18629 28.5 7.5 28.5C10.8137 28.5 13.5 25.8137 13.5 22.5V16.5H1.5ZM16.5 13.5V1.5H22.5C25.8137 1.5 28.5 4.18629 28.5 7.5C28.5 10.8137 25.8137 13.5 22.5 13.5H16.5Z"
      fill="white"
    />
  </g>
  <defs>
    <clipPath id="clip0_376_3648">
      <rect width={30} height={30} fill="white" />
    </clipPath>
  </defs>
</svg>
